<mxfile host="65bd71144e">
    <diagram id="viZa3OFTYwjqBXtbgQVL" name="ページ1">
        <mxGraphModel dx="1186" dy="558" grid="1" gridSize="10" guides="1" tooltips="1" connect="1" arrows="1" fold="1" page="1" pageScale="1" pageWidth="1654" pageHeight="1169" math="0" shadow="0">
            <root>
                <mxCell id="0"/>
                <mxCell id="1" parent="0"/>
                <mxCell id="2" value="sf_stage" style="sketch=0;points=[[0,0,0],[0.25,0,0],[0.5,0,0],[0.75,0,0],[1,0,0],[0,1,0],[0.25,1,0],[0.5,1,0],[0.75,1,0],[1,1,0],[0,0.25,0],[0,0.5,0],[0,0.75,0],[1,0.25,0],[1,0.5,0],[1,0.75,0]];outlineConnect=0;fontColor=#F0F0F0;gradientColor=#60A337;gradientDirection=north;fillColor=#277116;strokeColor=#ffffff;dashed=0;verticalLabelPosition=bottom;verticalAlign=top;align=center;html=1;fontSize=12;fontStyle=0;aspect=fixed;shape=mxgraph.aws4.resourceIcon;resIcon=mxgraph.aws4.s3;" vertex="1" parent="1">
                    <mxGeometry x="580" y="370" width="78" height="78" as="geometry"/>
                </mxCell>
                <mxCell id="3" value="IAM" style="outlineConnect=0;dashed=0;verticalLabelPosition=bottom;verticalAlign=top;align=center;html=1;shape=mxgraph.aws3.iam;fillColor=#759C3E;gradientColor=none;fontColor=#F0F0F0;" vertex="1" parent="1">
                    <mxGeometry x="630" y="80" width="42" height="81" as="geometry"/>
                </mxCell>
                <mxCell id="6" value="attach" style="edgeStyle=none;html=1;entryX=0.015;entryY=0.493;entryDx=0;entryDy=0;entryPerimeter=0;fontColor=#F0F0F0;" edge="1" parent="1" source="4" target="5">
                    <mxGeometry x="0.0835" relative="1" as="geometry">
                        <mxPoint as="offset"/>
                    </mxGeometry>
                </mxCell>
                <mxCell id="8" style="edgeStyle=none;html=1;fontColor=#F0F0F0;endArrow=none;endFill=0;dashed=1;" edge="1" parent="1" source="4" target="2">
                    <mxGeometry relative="1" as="geometry"/>
                </mxCell>
                <mxCell id="4" value="sf_stage_policy" style="sketch=0;pointerEvents=1;shadow=0;dashed=0;html=1;strokeColor=#2D7600;labelPosition=left;verticalLabelPosition=bottom;verticalAlign=top;align=right;fillColor=#60a917;shape=mxgraph.mscae.intune.policy;fontColor=#ffffff;" vertex="1" parent="1">
                    <mxGeometry x="440" y="200" width="50" height="50" as="geometry"/>
                </mxCell>
                <mxCell id="5" value="sf_stage_role" style="sketch=0;html=1;dashed=0;whitespace=wrap;fillColor=#60a917;strokeColor=#2D7600;points=[[0.005,0.63,0],[0.1,0.2,0],[0.9,0.2,0],[0.5,0,0],[0.995,0.63,0],[0.72,0.99,0],[0.5,1,0],[0.28,0.99,0]];shape=mxgraph.kubernetes.icon;prIcon=role;fontColor=#ffffff;labelPosition=center;verticalLabelPosition=bottom;align=center;verticalAlign=top;" vertex="1" parent="1">
                    <mxGeometry x="600" y="200" width="50" height="50" as="geometry"/>
                </mxCell>
                <mxCell id="9" value="&lt;div&gt;arn:aws:s3:::sf_stage/folder/*&lt;br&gt;&lt;/div&gt;&lt;div&gt;&lt;br&gt;&lt;/div&gt;&lt;div style=&quot;font-size: 8px&quot;&gt;s3:PutObject&lt;/div&gt;&lt;div style=&quot;font-size: 8px&quot;&gt;s3:GetObject&lt;/div&gt;&lt;div style=&quot;font-size: 8px&quot;&gt;s3:GetObjectVersion&lt;/div&gt;&lt;div style=&quot;font-size: 8px&quot;&gt;s3:DeleteObject&lt;/div&gt;&lt;div style=&quot;font-size: 8px&quot;&gt;s3:DeleteObjectVersion&lt;/div&gt;" style="shape=note;size=20;whiteSpace=wrap;html=1;fontColor=#F0F0F0;align=left;fontSize=8;spacingLeft=6;" vertex="1" parent="1">
                    <mxGeometry x="330" y="290" width="140" height="80" as="geometry"/>
                </mxCell>
                <mxCell id="10" value="&lt;div&gt;&lt;div&gt;&lt;span&gt;arn:aws:s3:::sf_stage&lt;/span&gt;&lt;/div&gt;&lt;div&gt;&lt;span style=&quot;font-size: 8px&quot;&gt;&lt;br&gt;&lt;/span&gt;&lt;/div&gt;&lt;div&gt;&lt;span style=&quot;font-size: 8px&quot;&gt;s3:ListBucket&lt;/span&gt;&lt;br&gt;&lt;/div&gt;&lt;div style=&quot;font-size: 8px&quot;&gt;s3:GetBucketLocation&lt;/div&gt;&lt;/div&gt;" style="shape=note;size=20;whiteSpace=wrap;html=1;fontColor=#F0F0F0;align=left;fontSize=8;spacingLeft=6;" vertex="1" parent="1">
                    <mxGeometry x="330" y="380" width="140" height="50" as="geometry"/>
                </mxCell>
            </root>
        </mxGraphModel>
    </diagram>
</mxfile>